<?xml version="1.0" encoding="UTF-8" standalone="no"?>
<!-- Created with Inkscape (http://www.inkscape.org/) -->
<svg
   xmlns:svg="http://www.w3.org/2000/svg"
   xmlns="http://www.w3.org/2000/svg"
   version="1.0"
   width="299"
   height="356"
   id="svg16413">
  <defs
     id="defs16415" />
  <g
     id="layer1">
    <path
       d="M 140.40096,350.28254 C 139.45246,349.13956 139.02852,345.72679 139.02852,339.23422 L 139.02852,329.83975 L 135.02852,328.02359 C 126.14035,323.98802 122.52852,317.9713 122.52852,307.20063 C 122.52852,301.54229 122.96083,299.76445 125.10346,296.61128 C 127.85782,292.55788 127.8601,292.5688 123.19366,287.44936 C 116.73194,280.36036 115.18559,263.12366 120.5035,257.46301 C 121.61726,256.27747 122.52852,254.85264 122.52852,254.29672 C 122.52852,253.7408 120.45656,250.61981 117.92417,247.36117 C 110.06079,237.24272 109.10301,234.71066 109.06342,223.93638 C 109.03154,215.25894 109.27792,214.00345 111.90886,209.43638 C 113.49305,206.68638 116.10231,203.0425 117.70722,201.33888 L 120.62524,198.24137 L 116.96119,193.85579 C 114.94596,191.44372 112.13932,186.98759 110.72421,183.95329 C 108.44604,179.06839 108.14426,177.11895 108.08991,166.93638 C 108.03667,156.96302 108.33684,154.75504 110.35109,150.30395 C 111.6285,147.48111 113.991,143.90942 115.60109,142.36686 C 118.4383,139.64863 119.45592,136.93638 117.63855,136.93638 C 117.14907,136.93638 114.26962,134.49671 111.23977,131.51488 C 102.83339,123.24174 98.48827,108.93639 101.9164,100.81976 L 103.44391,97.203108 L 99.73621,94.193328 C 96.09813,91.240048 94.09446,88.100648 91.15823,80.753088 L 89.68632,77.069788 L 84.61676,78.690968 C 79.76021,80.244038 79.32623,80.223618 74.28786,78.205028 C 70.9926,76.884808 66.9226,76.121098 63.38935,76.159998 C 59.42481,76.203658 56.31694,75.528278 52.92389,73.885728 C 50.26944,72.600728 46.09861,71.431608 43.65539,71.287688 C 40.67981,71.112398 37.3668,69.891778 33.62084,67.590638 C 29.62917,65.138558 26.81221,64.141888 23.77902,64.108508 C 18.97663,64.055668 11.16886,60.257958 7.07278,55.982568 L 4.47148,53.267398 L 10.03204,52.023008 C 16.80691,50.506848 34.83141,41.486878 47.02852,33.508908 C 51.97852,30.271178 62.32852,23.475548 70.02852,18.407508 C 87.2077,7.100398 88.50093,6.435928 96.32396,4.896838 C 114.43562,1.333588 128.71417,9.654588 131.03403,25.124568 C 131.9281,31.086678 130.25471,36.310248 125.88763,41.189258 C 124.04012,43.253338 122.52852,45.350838 122.52852,45.850368 C 122.52852,46.349888 123.96613,47.968258 125.7232,49.446738 C 128.30551,51.619608 129.58609,52.026438 132.40394,51.569168 C 137.68558,50.712078 138.50557,49.299638 138.59368,40.907308 C 138.65305,35.251848 138.16866,32.415348 136.60032,29.234688 C 132.30606,20.525748 134.76692,11.250808 142.4358,7.240878 C 152.81927,1.811528 164.01869,7.226388 165.26304,18.277718 C 165.61126,21.370368 165.05456,23.915528 163.09127,28.206768 C 160.77142,33.277348 160.48625,35.035848 160.73988,42.706768 L 161.02852,51.436378 L 165.72635,51.739038 C 170.04581,52.017318 176.52852,49.926498 176.52852,48.255088 C 176.52852,47.908628 175.47179,46.232688 174.18023,44.530768 C 168.41859,36.938538 167.92419,24.617298 173.07354,16.950098 C 179.46388,7.435118 188.09073,4.329318 200.80906,6.964888 C 212.48517,9.384478 217.37671,12.306848 245.70052,33.784628 C 252.48092,38.926168 263.87852,46.489638 271.02852,50.592348 C 283.40085,57.691658 284.282,58.032988 289.27852,57.661828 C 294.10647,57.303188 294.52852,57.444858 294.52852,59.424108 C 294.52852,62.358568 288.16746,69.569768 283.46091,71.970868 C 281.34192,73.051898 277.84465,73.936378 275.6892,73.936378 C 273.53375,73.936378 269.21104,75.108008 266.08316,76.539998 C 261.45349,78.659528 259.55934,79.018128 255.89558,78.468708 C 252.70178,77.989778 250.75479,78.213328 249.18995,79.238648 C 246.68471,80.880148 240.57576,82.084768 232.52852,82.524118 C 215.96423,83.428468 210.40609,83.894008 209.50196,84.452788 C 208.9499,84.793988 207.8678,86.581948 207.09728,88.426058 C 205.54269,92.146718 201.4758,96.689748 197.27852,99.394368 C 194.75279,101.0219 194.52852,101.6848 194.52852,107.52288 C 194.52852,116.4585 191.26715,123.32994 182.92465,131.97126 L 176.27638,138.85767 L 180.40051,143.78349 C 186.53915,151.11542 188.48069,156.13571 188.50656,164.74356 C 188.54695,178.18198 185.24062,185.75299 175.81195,193.81237 L 171.06871,197.86676 L 174.13995,201.15157 C 181.40454,208.92134 182.03377,210.55161 181.96922,221.43638 C 181.89629,233.73586 180.27011,237.41447 171.55496,244.99467 C 165.97188,249.85069 164.04028,252.93638 166.58355,252.93638 C 167.16381,252.93638 168.78751,255.52388 170.19176,258.68638 C 174.61963,268.65837 172.60197,279.02711 164.42626,288.31521 C 162.2825,290.75065 160.52852,292.99174 160.52852,293.29542 C 160.52852,293.5991 161.65352,295.50534 163.02852,297.53152 C 165.05204,300.51334 165.52852,302.43719 165.52852,307.62559 C 165.52852,318.9016 158.50026,327.93638 149.72852,327.93638 L 146.8292,327.93638 L 146.14837,339.14621 C 145.52339,349.43638 144.81178,351.86224 142.40096,351.92107 C 142.05581,351.92949 141.15581,351.19215 140.40096,350.28254 z M 143.52852,324.37736 C 143.52852,309.77414 143.17189,301.93638 142.50741,301.93638 C 141.8383,301.93638 141.53285,309.86099 141.62131,324.925 C 141.69803,337.98845 142.13888,347.67719 142.64242,347.36599 C 143.12977,347.06478 143.52852,336.7199 143.52852,324.37736 z M 139.07482,312.50941 C 138.95425,303.67118 137.6363,301.8935 134.99339,307.00431 C 133.10021,310.66532 133.6665,317.38499 136.29278,322.42321 L 137.86347,325.43638 L 138.52321,322.93638 C 138.88607,321.56138 139.13429,316.86924 139.07482,312.50941 z M 150.49334,322.00212 C 151.91521,319.34533 151.79946,309.60732 150.32852,308.13638 C 148.09215,305.90001 147.67606,306.92081 147.35199,315.43871 C 147.11679,321.621 147.36001,323.94041 148.24334,323.93871 C 148.91149,323.93743 149.92399,323.06596 150.49334,322.00212 z M 158.6354,317.26345 C 165.05928,306.86939 162.60789,298.89084 149.932,288.93638 C 148.88146,288.11138 146.18848,285.99751 143.9476,284.23888 C 141.70673,282.48026 138.61596,279.22705 137.07922,277.00954 C 134.61344,273.45142 134.3352,272.28572 134.71115,267.08833 L 135.13715,261.19896 L 130.97798,258.56767 C 128.69043,257.12046 126.09005,255.93638 125.19934,255.93638 C 120.93809,255.93638 118.77891,268.81321 121.8198,276.09109 C 124.73654,283.07183 133.91944,291.05199 143.52852,294.9565 C 148.55065,296.99717 154.30511,303.22857 155.10503,307.49251 C 155.76709,311.02158 155.3163,316.08105 153.90722,320.93638 C 153.25672,323.17783 153.3535,323.29548 154.84302,322.07396 C 155.75676,321.32463 157.46333,319.1599 158.6354,317.26345 z M 129.85295,316.02787 C 129.05762,309.31253 130.05024,304.93174 133.11645,301.62498 C 136.12715,298.37807 135.72095,296.27376 131.89828,295.31434 C 129.67225,294.75564 128.75059,295.15608 126.7883,297.53454 C 124.66732,300.10533 124.44288,301.19559 124.82103,307.0913 C 125.11318,311.64616 125.94902,314.8807 127.46976,317.3413 C 128.69179,319.31859 129.85874,320.93638 130.06296,320.93638 C 130.26719,320.93638 130.17269,318.72755 129.85295,316.02787 z M 159.68194,284.18638 C 164.87618,279.50315 167.4846,273.90366 167.4846,267.43638 C 167.4846,257.85048 161.57502,249.69499 149.00697,241.93638 C 141.7529,237.45824 134.77058,231.30516 132.95174,227.78791 C 130.70982,223.4525 131.14787,216.77639 133.94469,212.65505 C 136.73396,208.54484 136.80883,208.6618 127.76615,203.00435 C 121.67793,199.19533 121.25155,199.35461 117.09553,206.9906 C 113.11044,214.31252 112.62216,221.89758 115.54979,231.00254 C 117.46774,236.96737 118.84473,239.16092 123.96629,244.4101 C 127.68066,248.21702 132.56948,251.93786 136.39301,253.86798 C 148.71772,260.08947 154.67586,268.01018 151.1169,273.44184 C 150.21897,274.81225 149.52852,277.96781 149.52852,280.7012 C 149.52852,288.91864 153.0809,290.138 159.68194,284.18638 z M 145.63921,277.68638 C 145.85395,269.44142 144.8895,265.93638 142.40608,265.93638 C 141.05442,265.93638 141.34676,279.35462 142.72852,280.73638 C 144.80865,282.81651 145.52515,282.06572 145.63921,277.68638 z M 139.2566,268.18638 C 138.85797,266.51971 138.80176,266.51971 138.07629,268.18638 C 137.65733,269.14888 137.65733,270.72388 138.07629,271.68638 C 138.80176,273.35305 138.85797,273.35305 139.2566,271.68638 C 139.48681,270.72388 139.48681,269.14888 139.2566,268.18638 z M 165.35931,244.18548 C 172.38277,239.91426 176.68479,231.99918 177.32194,222.17601 C 177.75005,215.57579 177.51199,214.3451 174.70377,208.64079 C 173.00476,205.18962 170.58278,201.43437 169.32159,200.29579 C 166.02256,197.31748 151.64575,187.53976 147.52852,185.47423 C 145.60352,184.5085 141.21129,181.85492 137.76802,179.57737 C 132.38819,176.0189 131.22765,174.69258 129.51802,170.14887 C 126.26769,161.51042 126.94483,155.54969 131.78,150.23726 C 134.5429,147.20163 133.59329,145.62552 126.99804,142.30043 L 121.31726,139.43638 L 117.80871,143.43638 C 112.35939,149.64899 110.52852,154.85224 110.52852,164.12632 C 110.52852,171.00569 110.96315,173.06112 113.57502,178.53382 C 117.13712,185.99752 123.89768,193.01664 132.17948,197.84982 C 144.72016,205.16845 154.8523,212.42008 156.64505,215.35997 C 157.67685,217.052 158.52273,220.14181 158.52478,222.22622 C 158.52871,226.21365 155.76146,232.66824 153.10161,234.87572 C 150.45209,237.07463 151.3286,239.66402 155.77852,242.78389 C 160.85413,246.34243 161.62665,246.45544 165.35931,244.18548 z M 147.53865,228.93638 C 147.84528,215.4173 147.78791,215.12187 144.52852,213.43638 L 141.52852,211.88502 L 141.52852,222.37174 C 141.52852,231.8805 141.73317,233.04913 143.723,234.90294 C 144.92997,236.0274 146.24908,236.60743 146.65436,236.1919 C 147.05964,235.77636 147.45757,232.51138 147.53865,228.93638 z M 153.90822,225.75668 C 154.1062,220.29247 152.06006,220.92761 151.71852,226.43638 C 151.47918,230.2968 151.67968,231.16751 152.59823,230.25668 C 153.25256,229.60784 153.84206,227.58284 153.90822,225.75668 z M 138.74645,219.75431 C 137.29619,218.30405 136.1618,222.40501 137.08559,225.75855 C 137.80974,228.38739 137.84101,228.36628 138.79447,224.60497 C 139.44149,222.05256 139.42546,220.43332 138.74645,219.75431 z M 170.49573,187.46045 C 178.84401,181.33225 182.81117,173.20121 182.94899,161.93638 C 183.00487,157.36941 182.44727,154.26441 181.07401,151.49552 C 179.19407,147.70501 170.67887,137.93638 169.25468,137.93638 C 168.87466,137.93638 165.67589,136.16881 162.14628,134.00846 C 158.54776,131.80592 150.52349,128.4277 143.87866,126.31779 C 130.49362,122.06768 121.62508,117.20246 117.17986,111.67103 C 114.76222,108.66262 114.06689,106.70258 113.72103,101.92104 C 113.26478,95.613398 114.03344,94.626848 116.91951,97.815918 C 120.93762,102.2559 130.98375,100.987 135.30474,95.493738 C 137.57831,92.603368 137.37039,90.503618 134.7012,89.398448 C 127.40167,86.376088 118.69969,87.346488 112.04513,91.924948 C 103.61869,97.722488 101.21617,107.47856 105.93923,116.71962 C 110.39221,125.43226 116.73282,130.15965 138.33637,140.87407 C 156.5219,149.89329 159.78858,152.00306 162.59236,156.53967 C 166.44505,162.77346 164.02343,172.43473 157.0081,178.81853 C 153.10075,182.37414 152.73366,183.93154 155.27852,186.15623 C 157.62283,188.2056 162.70218,190.84674 164.39454,190.89634 C 165.14586,190.91836 167.89139,189.37221 170.49573,187.46045 z M 121.25347,92.327998 C 120.01479,91.089318 121.62206,89.936378 124.58754,89.936378 C 126.20508,89.936378 127.52852,90.386378 127.52852,90.936378 C 127.52852,91.486378 126.89032,91.936378 126.11031,91.936378 C 125.33029,91.936378 124.06929,92.175368 123.30807,92.467478 C 122.54686,92.759578 121.62229,92.696818 121.25347,92.327998 z M 150.00024,168.76615 C 150.72157,155.72363 150.70585,155.57835 148.37858,153.78268 C 145.33042,151.43079 142.51443,150.51839 141.60207,151.58704 C 141.20325,152.05418 141.13605,158.41554 141.45273,165.7234 C 142.01063,178.59748 142.10622,179.05284 144.52852,180.37535 C 149.10922,182.87629 149.23459,182.61029 150.00024,168.76615 z M 157.99092,173.63411 C 160.60765,169.64047 160.79777,165.74418 158.55193,162.13688 C 157.42211,160.32216 156.05465,159.11122 155.51312,159.4459 C 154.2262,160.24126 154.21892,175.93638 155.50547,175.93638 C 156.04279,175.93638 157.16124,174.90036 157.99092,173.63411 z M 138.52852,165.43638 C 138.52852,157.76002 138.24733,155.93638 137.0637,155.93638 C 135.35606,155.93638 134.04225,158.14523 133.07821,162.63704 C 132.59677,164.88025 132.99327,167.19861 134.40367,170.38704 C 137.50109,177.38926 138.52852,176.15613 138.52852,165.43638 z M 172.84426,132.80419 C 182.348,127.87801 190.4777,116.23877 191.2615,106.43638 C 191.70753,100.85829 191.51804,100.15512 188.56664,96.436378 C 183.66861,90.264908 178.42513,87.586298 171.14755,87.537918 C 164.51576,87.493838 159.24875,89.435068 158.73293,92.113498 C 158.5569,93.027538 159.722,95.240558 161.32205,97.031328 C 163.85782,99.869338 164.99447,100.34247 170.17769,100.71739 C 175.46314,101.09971 176.46836,100.85789 179.22069,98.541948 C 180.92379,97.108878 182.59509,95.936378 182.93469,95.936378 C 183.78093,95.936378 182.48953,103.9695 181.24672,106.43638 C 177.65024,113.57513 168.47249,121.19268 160.22362,123.88558 C 155.11783,125.55241 155.72573,127.43682 162.52852,131.03048 C 168.64224,134.26013 169.6884,134.44 172.84426,132.80419 z M 170.27852,92.247048 C 167.45798,91.509968 168.26905,89.936378 171.4695,89.936378 C 174.79629,89.936378 176.32415,91.417088 173.94099,92.331588 C 173.07416,92.664228 172.28925,92.884178 172.19673,92.820378 C 172.10422,92.756578 171.24102,92.498578 170.27852,92.247048 z M 151.67092,123.68638 C 152.08618,120.04132 152.4583,113.07559 153.50057,89.436378 C 154.13107,75.136378 154.8211,62.900108 155.03398,62.244658 C 155.24685,61.589208 155.50079,55.739208 155.59828,49.244658 L 155.77555,37.436378 L 148.92473,36.747008 C 145.15679,36.367858 141.93485,36.196718 141.76487,36.366688 C 141.5949,36.536668 141.24609,55.607148 140.98975,78.745548 C 140.62399,111.76027 140.79324,120.9898 141.7761,121.62586 C 143.41492,122.68644 148.68685,124.66515 150.27852,124.81707 C 150.96602,124.88269 151.5926,124.37388 151.67092,123.68638 z M 162.83338,120.00986 C 167.39653,117.91433 174.52852,111.84148 174.52852,110.05151 C 174.52852,109.43819 173.85352,108.93638 173.02852,108.93638 C 172.20352,108.93638 171.64102,108.42142 171.77852,107.79203 C 171.91602,107.16264 170.46991,106.22487 168.56494,105.70809 C 166.65996,105.19132 163.50996,103.36843 161.56494,101.65721 L 158.02852,98.545898 L 157.72779,104.85708 C 157.56239,108.32823 157.6505,111.3917 157.9236,111.66479 C 158.19669,111.93788 160.46951,111.46302 162.97432,110.60955 C 169.17283,108.4975 168.73341,110.03419 162.28685,113.01373 C 157.18735,115.37067 155.72656,117.40411 156.91256,120.49479 C 157.61798,122.33309 157.80834,122.3175 162.83338,120.00986 z M 138.28506,117.7536 C 137.58536,115.94298 125.52982,108.93638 123.11418,108.93638 C 121.37903,108.93638 121.49012,109.28686 124.08313,111.99338 C 130.1958,118.37364 140.07277,122.37967 138.28506,117.7536 z M 137.72942,111.18638 C 138.477,108.17304 138.70812,98.936378 138.03594,98.936378 C 137.68346,98.936378 135.9626,100.02048 134.2118,101.34547 C 132.461,102.67046 129.48849,104.37666 127.60622,105.13702 L 124.18393,106.51951 L 130.10622,109.57963 C 137.4132,113.35524 137.20237,113.31081 137.72942,111.18638 z M 198.16341,90.456938 C 200.52405,87.993248 203.20271,84.837068 204.116,83.443208 C 205.75198,80.946398 205.70475,80.831508 200.92185,75.672648 C 198.25178,72.792698 195.72037,70.286178 195.29649,70.102588 C 194.87261,69.919008 192.49033,71.560488 190.00254,73.750328 C 183.27008,79.676478 179.13863,81.340378 171.02852,81.391898 C 167.17852,81.416368 162.90352,81.211378 161.52852,80.936378 C 159.24281,80.479238 159.02852,80.736378 159.02852,83.936378 C 159.02852,87.792958 158.89975,87.761498 166.92839,85.866808 C 173.27588,84.368858 181.89171,86.776558 187.30399,91.560788 C 189.35248,93.371578 191.66816,94.871858 192.44994,94.894748 C 193.23172,94.917648 195.80278,92.920628 198.16341,90.456938 z M 109.43756,90.545978 C 110.07222,89.781258 112.92772,88.150558 115.7831,86.922208 C 120.04331,85.089508 122.09983,84.793898 127.24609,85.274468 C 130.69535,85.596558 134.36079,86.311428 135.39151,86.863048 C 137.73356,88.116478 138.52852,87.358698 138.52852,83.872768 L 138.52852,81.142498 L 130.27852,81.169358 C 123.95868,81.189928 120.95049,80.701668 117.42073,79.082408 C 113.1389,77.118128 106.49542,70.864868 103.92497,66.379348 C 102.90217,64.594538 102.48138,64.818728 98.17497,69.442848 C 95.61942,72.186928 93.52852,75.013478 93.52852,75.724068 C 93.52852,78.499048 97.66103,84.893958 101.67403,88.328928 C 106.26683,92.260198 107.67997,92.663748 109.43756,90.545978 z M 220.94673,79.329388 C 223.34509,78.409058 222.87334,77.312608 219.06684,74.960058 C 217.16291,73.783368 213.52836,69.696668 210.99004,65.878498 C 206.86891,59.679428 206.02993,58.936378 203.15172,58.936378 C 196.1361,58.936378 195.79232,63.165918 202.24704,70.066538 C 207.15455,75.313068 210.92834,77.759678 216.02852,79.001308 C 217.67852,79.402998 219.10422,79.777718 219.19673,79.834018 C 219.28925,79.890318 220.07675,79.663228 220.94673,79.329388 z M 135.15903,75.384568 C 137.87471,74.841158 138.49797,72.392788 138.51487,62.201708 L 138.52852,53.967038 L 132.53837,54.593138 L 126.54822,55.219228 L 122.03837,50.709388 C 116.43455,45.105568 116.17071,42.218658 120.90051,38.259178 C 125.45191,34.449058 127.52852,30.017458 127.52852,24.114648 C 127.52852,19.834658 127.04001,18.651428 123.77852,15.031718 C 118.81151,9.519158 112.3027,7.125628 102.92717,7.363908 C 96.79845,7.519668 94.67552,8.116538 87.42718,11.721788 C 82.80791,14.019368 76.49552,17.595068 73.39963,19.667788 C 70.30374,21.740518 64.00374,25.957038 59.39963,29.037848 C 41.15753,41.244418 31.69701,46.526118 14.04048,54.361328 L 10.05244,56.131048 L 12.8863,57.615858 C 18.07036,60.332058 25.81555,60.462158 32.76588,57.949778 C 44.50394,53.706758 75.90107,33.967098 78.84547,28.979118 C 81.25668,24.894408 82.52852,25.949748 82.52852,32.035228 C 82.52852,43.686748 93.1507,53.909988 105.27852,53.930798 C 107.06602,53.933868 108.52852,54.386378 108.52852,54.936378 C 108.52852,55.486378 108.01927,55.936378 107.39685,55.936378 C 105.58392,55.936378 107.04183,63.444138 109.53455,66.944848 C 112.41481,70.989798 118.64025,74.866658 123.8645,75.868748 C 127.71714,76.607738 129.40861,76.535228 135.15903,75.384568 z M 244.52852,75.959428 C 244.52852,75.422108 243.29102,74.230348 241.77852,73.311068 C 234.63877,68.971628 229.6874,65.290748 225.93702,61.534398 C 217.73315,53.317478 218.07756,53.498978 214.59434,55.556568 C 212.90814,56.552628 211.52852,58.102068 211.52852,58.999768 C 211.52852,61.569408 222.9263,71.776668 228.75079,74.423128 C 234.13778,76.870808 244.52852,77.882578 244.52852,75.959428 z M 86.59362,72.888348 C 88.55442,71.896168 92.29158,69.175438 94.8984,66.842278 C 102.61996,59.931328 102.91816,57.662908 96.26906,56.415528 C 92.62171,55.731278 92.32112,55.909988 85.77136,62.656628 C 82.0628,66.476658 77.79102,70.404098 76.27852,71.384268 C 73.10157,73.443078 72.80372,74.596418 75.27852,75.256478 C 77.82406,75.935408 82.50997,74.954698 86.59362,72.888348 z M 177.02718,74.832398 C 182.88489,73.357408 188.95572,68.003088 191.08149,62.436858 C 192.46569,58.812388 192.55267,57.670408 191.53771,56.447448 C 190.84796,55.616358 190.45123,54.921018 190.65608,54.902258 C 190.86092,54.883488 194.47291,54.770988 198.68271,54.652258 C 205.49703,54.460068 206.81375,54.091658 210.68271,51.294788 C 217.41088,46.430988 221.00343,38.015658 219.37381,30.936378 C 218.58731,27.519688 221.88709,29.763408 223.39471,33.670428 C 225.05113,37.963078 232.92616,44.950698 249.31023,56.665638 C 262.60296,66.170208 278.80026,70.100068 285.77852,65.513738 C 289.54277,63.039758 289.22849,61.462668 284.70091,60.106168 C 274.96778,57.190058 256.3007,45.805228 235.72147,30.234188 C 209.23101,10.190498 200.00588,6.436948 184.79686,9.513798 C 181.59724,10.161098 175.46223,15.850788 173.87956,19.638638 C 170.97945,26.579588 172.86206,34.709568 178.78189,40.809158 L 182.51701,44.657688 L 180.27276,47.955088 C 175.69158,54.686068 169.89394,56.807288 162.27852,54.538748 L 159.52852,53.719558 L 159.52852,63.799378 L 159.52852,73.879198 L 162.77852,74.817598 C 167.29766,76.122448 171.88499,76.127218 177.02718,74.832398 z M 260.94673,73.329388 C 262.64256,72.678638 263.15598,69.936378 261.58198,69.936378 C 259.64659,69.936378 239.75433,55.915618 232.64379,49.539738 C 225.02572,42.708758 223.17011,41.822028 222.13551,44.518168 C 220.59354,48.536458 221.63042,51.168468 226.77852,56.303958 C 238.78632,68.282348 254.1497,75.937658 260.94673,73.329388 z M 69.54346,69.464268 C 72.02667,68.198538 77.54885,64.555878 81.81495,61.369448 L 89.5715,55.575938 L 86.35384,52.256158 C 84.58413,50.430278 82.77923,48.936378 82.34294,48.936378 C 81.90665,48.936378 79.18134,51.073878 76.28668,53.686378 C 69.57362,59.745078 62.18967,65.098958 56.77852,67.831128 C 51.6887,70.401068 51.40038,71.666798 55.77852,72.221218 C 60.57133,72.828148 64.47959,72.045368 69.54346,69.464268 z M 53.02852,64.069208 C 58.40537,61.501228 80.52852,47.472828 80.52852,46.631318 C 80.52852,45.139158 77.17205,36.936378 76.56148,36.936378 C 76.133,36.936378 69.9878,41.278968 62.90548,46.586588 C 51.71187,54.975258 37.92635,62.936378 34.59406,62.936378 C 32.22162,62.936378 33.74116,64.940588 36.77852,65.817598 C 42.5297,67.478188 46.86812,67.011408 53.02852,64.069208 z M 158.64297,28.968348 C 165.78471,20.413688 160.42803,8.936378 149.29366,8.936378 C 144.98036,8.936378 143.88215,9.382738 140.92852,12.336378 C 138.01527,15.249628 137.52852,16.417088 137.52852,20.491218 C 137.52852,24.768098 137.94665,25.643808 141.68824,29.203098 C 145.63674,32.959218 146.10454,33.135488 150.90108,32.674598 C 155.06222,32.274768 156.42883,31.620538 158.64297,28.968348 z M 149.12309,28.089398 C 148.78011,27.534438 149.43163,26.784518 150.57093,26.422918 C 153.64021,25.448768 156.29187,19.388348 154.73769,16.899708 C 152.24727,12.911918 154.691,11.248458 157.87353,14.765118 C 160.2305,17.369538 159.95018,22.352948 157.27852,25.342968 C 154.81325,28.101998 150.10981,29.685938 149.12309,28.089398 z "
       style="fill:#000000"
       id="path16479" />
  </g>
</svg>
