<?xml version="1.0" encoding="UTF-8" standalone="no"?>
<svg
   xmlns:dc="http://purl.org/dc/elements/1.1/"
   xmlns:cc="http://creativecommons.org/ns#"
   xmlns:rdf="http://www.w3.org/1999/02/22-rdf-syntax-ns#"
   xmlns:svg="http://www.w3.org/2000/svg"
   xmlns="http://www.w3.org/2000/svg"
   xmlns:sodipodi="http://sodipodi.sourceforge.net/DTD/sodipodi-0.dtd"
   xmlns:inkscape="http://www.inkscape.org/namespaces/inkscape"
   version="1.0"
   width="584.64502"
   height="127.94199"
   viewBox="0 0 584.64504 127.94199"
   id="svg2033"
   xml:space="preserve"
   inkscape:version="0.48.1 "
   sodipodi:docname="AJAX.svg"><metadata
   id="metadata9"><rdf:RDF><cc:Work
       rdf:about=""><dc:format>image/svg+xml</dc:format><dc:type
         rdf:resource="http://purl.org/dc/dcmitype/StillImage" /></cc:Work></rdf:RDF></metadata><sodipodi:namedview
   pagecolor="#ffffff"
   bordercolor="#666666"
   borderopacity="1"
   objecttolerance="10"
   gridtolerance="10"
   guidetolerance="10"
   inkscape:pageopacity="0"
   inkscape:pageshadow="2"
   inkscape:window-width="1280"
   inkscape:window-height="1004"
   id="namedview7"
   showgrid="false"
   fit-margin-top="0"
   fit-margin-left="0"
   fit-margin-right="0"
   fit-margin-bottom="0"
   inkscape:zoom="2.425501"
   inkscape:cx="292.32349"
   inkscape:cy="63.970006"
   inkscape:window-x="-8"
   inkscape:window-y="-8"
   inkscape:window-maximized="1"
   inkscape:current-layer="svg2033" /><defs
   id="defs2880" />
<rect
   width="584.64502"
   height="127.942"
   x="0"
   y="-4.09635e-006"
   id="_71073112"
   style="fill:#f9ba00;fill-opacity:1" />
<path
   d="m 115.799,63.488996 c 0,25.428 -20.477,45.811004 -46.009,45.811004 -25.254,0 -45.8,-20.477004 -45.8,-45.732004 0,-25.788 20.545,-46.091 46.628,-46.091 24.793,-0.001 45.181,20.844 45.181,46.012 m -87.05,0 c 0,22.674 18.368,41.038004 41.041,41.038004 22.772,0 41.239,-18.275004 41.239,-40.959004 0,-23.137 -18.19,-41.307 -41.505,-41.307 -22.308,-10e-4 -40.775,18.623 -40.775,41.228 z m 31.04,-1.848 -0.562,1.109 c -2.109,-0.463 -5.961,-1.936 -10.002,-3.774 l -0.552,1.02 1.656,0.911 c 5.872,3.035 7.804,3.67 11.203,3.67 6.789,0 11.934,-3.853 14.327,-10.646 4.218,-0.823 9.638,-1.188 16.062,-1.188 5.508,0 10.288,0.271 16.437,1.01 l -1.558,1.927 c -2.847,-0.375 -8.089,-0.739 -11.854,-0.739 -4.493,0 -7.342,0.093 -8.81,0.182 l -0.729,1.656 c 3.765,-0.183 5.134,-0.183 8.08,-0.183 4.957,0 8.898,0.183 12.11,0.454 l -1.557,2.02 c -5.784,-0.172 -8.444,-0.271 -12.751,-0.271 -2.395,0 -4.139,0.099 -6.986,0.177 l -0.739,1.655 c 2.474,-0.177 5.873,-0.271 9.46,-0.271 3.399,0 7.431,0.094 9.824,0.183 l -1.566,2.029 c -1.636,-0.103 -4.858,-0.103 -7.342,-0.103 -3.941,0 -8.897,0.182 -11.47,0.557 l -0.739,1.463 c 4.682,-0.454 7.617,-0.636 12.762,-0.636 2.02,0 3.301,0 5.606,0.183 l -1.754,2.11 c -3.124,-0.184 -4.119,-0.184 -5.321,-0.184 -8.721,0 -14.406,1.281 -20.112,4.498 5.232,5.229 13.953,8.811 21.768,8.811 0.641,0 1.005,0 2.661,-0.09 l -3.774,3.775 c -20.741,-5.42 -24.417,-6.894 -43.425,-18.185 -7.519,-4.317 -13.678,-7.253 -18.644,-8.727 l 0.65,-2.291 c 1.202,0.178 3.764,0.917 6.159,1.744 l 1.094,-2.483 20.388,8.627 z"
   id="path2874"
   style="fill:#00235f;fill-opacity:1"
   inkscape:connector-curvature="0" />
<path
   d="m 192.353,32.813996 v 49.131 h 25.896 v 12.107 H 177.02 v -61.238 h 15.333 m 57.931,61.238 -0.452,-4.307 c -3.588,3.764 -7.628,5.508 -12.672,5.508 -6.248,0 -11.293,-2.572 -13.865,-6.971 -1.931,-3.312 -2.207,-4.967 -2.207,-12.221 v -26.072 h 14.416 v 25.518 c 0,6.438 1.833,9.098 6.336,9.098 4.771,0 7.164,-3.123 7.164,-9.098 v -25.518 h 14.406 v 44.063 h -13.126 z m 45.821,-51.503 h -2.395 c -5.33,0 -6.7,1.281 -6.7,6.148 v 1.291 h 8.534 v 9.726 h -8.534 v 34.337 h -14.406 v -34.337 h -6.248 v -9.725 h 6.248 v -1.291 c 0,-11.563 4.306,-15.884 15.599,-15.884 h 7.902 v 9.735 z m 22.122,-6.336 v 13.776 h 8.178 v 9.726 h -8.178 v 17.447 c 0.098,6.43 0.474,6.799 5.972,6.799 h 2.848 v 10.092 h -10.829 c -8.544,0 -12.406,-3.943 -12.406,-12.934 v -21.405 h -6.051 v -9.725 h 6.051 v -13.776 h 14.415 z m 26.438,-3.399 v 22.127 c 2.681,-4.316 6.435,-6.243 12.043,-6.243 6.05,0 10.928,2.572 13.578,7.253 1.932,3.399 2.216,5.237 2.216,12.583 v 25.518 h -14.337 v -24.961 c 0,-6.341 -1.921,-9.184 -6.336,-9.184 -4.77,0 -7.164,3.119 -7.164,9.184 v 24.961 H 330.26 v -61.238 h 14.405 z m 33.977,31.222 c 0,-10.002 7.814,-15.885 20.851,-15.885 13.678,0 20.468,5.691 20.468,17.254 v 22.502 c 0,3.852 0,3.852 1.192,6.145 h -13.304 l -0.826,-3.662 c -4.593,4.035 -8.544,5.498 -14.32,5.498 -9.744,0 -16.8,-5.779 -16.8,-13.76 0,-6.621 4.306,-11.303 12.752,-13.691 1.29,-0.365 5.518,-1.193 12.76,-2.568 3.134,-0.645 4.316,-1.651 4.316,-3.759 0,-2.483 -2.572,-4.138 -6.425,-4.138 -4.682,0 -7.43,2.207 -7.527,6.065 h -13.137 z m 27.453,8.899 c -1.832,0.557 -2.385,0.732 -3.853,1.201 -1.744,0.453 -3.302,0.812 -5.232,1.188 -4.68,1.193 -6.986,3.039 -6.986,5.873 0,2.857 2.207,4.504 5.804,4.504 6.976,0 10.268,-3.119 10.268,-9.639 v -3.127 z m 32.054,-22.946 0.464,4.952 c 3.39,-4.316 7.419,-6.243 12.751,-6.243 6.158,0 11.125,2.661 13.697,7.253 1.822,3.399 2.197,5.331 2.197,12.583 v 25.518 H 452.84 v -24.961 c 0,-6.519 -1.842,-9.184 -6.334,-9.184 -4.691,0 -7.066,3.119 -7.066,9.184 v 24.961 h -14.426 v -44.063 h 13.135 z m 60.781,13.771 c -0.376,-4.134 -2.12,-5.691 -6.515,-5.691 -3.586,0 -5.783,1.375 -5.783,3.676 0,2.108 2.098,3.391 6.877,4.124 l 4.967,0.922 c 10.465,1.744 15.332,6.145 15.332,13.771 0,9.365 -7.992,15.326 -20.476,15.326 -14.782,0 -22.862,-5.873 -22.862,-16.514 h 14.042 v 0.541 c 0,3.676 3.036,5.977 7.903,5.977 4.217,0 6.789,-1.566 6.789,-4.049 0,-2.572 -2.395,-4.037 -7.991,-5.047 l -4.581,-0.734 c -10.475,-1.836 -14.979,-5.602 -14.979,-12.573 0,-9.558 7.981,-15.338 21.126,-15.338 9.175,0 14.87,2.474 17.816,7.8 1.28,2.212 1.458,2.946 1.832,7.809 H 498.93 z m 20.101,0.276 c 0.099,-9.923 7.902,-15.885 21.027,-15.885 13.688,0 20.378,5.691 20.378,17.254 v 22.502 c 0,3.764 0,3.764 1.202,6.145 h -13.402 l -0.728,-3.662 c -5.332,4.307 -8.455,5.498 -14.318,5.498 -9.845,0 -16.898,-5.779 -16.898,-13.76 0,-6.621 4.314,-11.303 12.75,-13.691 1.292,-0.365 5.519,-1.281 12.771,-2.568 3.025,-0.645 4.306,-1.651 4.306,-3.759 0,-2.483 -2.572,-4.138 -6.334,-4.138 -4.682,0 -7.53,2.301 -7.53,6.065 h -13.224 z m 27.562,8.899 c -1.844,0.557 -2.494,0.732 -3.963,1.201 -1.566,0.271 -3.3,0.646 -5.231,1.188 -4.681,1.193 -6.977,3.039 -6.977,5.873 0,2.857 2.198,4.504 5.883,4.504 6.976,0 10.288,-3.119 10.288,-9.639 v -3.127 z"
   id="path2876"
   style="fill:#00235f;fill-opacity:1"
   inkscape:connector-curvature="0" />
</svg>