<?xml version="1.0" encoding="UTF-8" standalone="no"?>
<!-- Created with Inkscape (http://www.inkscape.org/) -->
<svg
   xmlns:svg="http://www.w3.org/2000/svg"
   xmlns="http://www.w3.org/2000/svg"
   version="1.0"
   width="200"
   height="200"
   viewBox="0 0 200 200"
   id="Layer_1"
   xml:space="preserve"><defs
   id="defs7" />
<circle
   cx="100"
   cy="100"
   r="88.5"
   id="circle3"
   style="fill:none;stroke:#000000;stroke-width:20" />
<path
   d="M 94.555176,91.95166 C 100.125,91.95166 104.10742,90.916504 106.50195,88.844238 C 108.94336,86.773926 110.16211,83.366699 110.16211,78.625488 C 110.16211,73.930176 108.94336,70.568848 106.50195,68.543457 C 104.10742,66.518066 100.125,65.504395 94.555176,65.504395 L 83.368652,65.504395 L 83.368652,91.95166 L 94.555176,91.95166 M 83.368652,110.31836 L 83.368652,149.33398 L 56.782715,149.33398 L 56.782715,46.238769 L 97.38623,46.238769 C 110.9668,46.238769 120.91016,48.518066 127.21875,53.074707 C 133.57031,57.633301 136.74609,64.836426 136.74609,74.688965 C 136.74609,81.502441 135.08984,87.096191 131.77539,91.469238 C 128.50586,95.842285 123.55859,99.06445 116.92969,101.13477 C 120.56445,101.96289 123.81055,103.85156 126.66602,106.79883 C 129.56445,109.69727 132.48828,114.11719 135.43555,120.05664 L 149.86719,149.33398 L 121.55469,149.33398 L 108.98633,123.7168 C 106.45508,118.56055 103.87695,115.03711 101.25391,113.15039 C 98.67578,111.26367 95.223145,110.31836 90.89502,110.31836 L 83.368652,110.31836"
   id="text3175" />
</svg>